<?xml version="1.0" encoding="windows-1252"?>
<!-- Generator: Adobe Illustrator 19.0.0, SVG Export Plug-In . SVG Version: 6.00 Build 0)  -->
<svg xmlns="http://www.w3.org/2000/svg" xmlns:xlink="http://www.w3.org/1999/xlink" version="1.1" id="Layer_1" x="0px" y="0px" viewBox="0 0 512.143 512.143" style="enable-background:new 0 0 512.143 512.143;" xml:space="preserve" width="512" height="512">
<linearGradient id="SVGID_1_" gradientUnits="userSpaceOnUse" x1="256.0713" y1="2.441427e-004" x2="256.0713" y2="512.1423">
	<stop offset="0" style="stop-color:#2AF598"/>
	<stop offset="1" style="stop-color:#009EFD"/>
</linearGradient>
<path style="fill:url(#SVGID_1_);" d="M302.143,0c-115.794,0-210,94.206-210,210c0,50.711,18.069,97.28,48.105,133.61L0,483.858  l28.285,28.284l140.247-140.247c36.331,30.036,82.9,48.105,133.61,48.105c115.794,0,210-94.206,210-210S417.937,0,302.143,0z   M302.143,380c-93.738,0-170-76.262-170-170s76.262-170,170-170s170,76.262,170,170S395.881,380,302.143,380z M285.054,110.089  c0-13.807,11.193-25,25-25s25,11.193,25,25s-11.193,25-25,25S285.054,123.896,285.054,110.089z M337.26,287.453l17.541,35.949  l-13.589,6.63c-6.775,3.306-14.054,4.934-21.294,4.934c-10.142,0-20.208-3.195-28.717-9.452  c-14.578-10.721-21.938-28.493-19.211-46.38c0.096-0.626,0.221-1.247,0.375-1.861l15.876-63.148c0.328-3.996-1.984-6.354-3.448-7.43  c-1.549-1.139-4.751-2.757-8.771-0.792c-13.599,6.635-16.402,8-16.402,8l-17.516-35.961c0.009-0.004,2.821-1.375,16.377-7.989  c16.269-7.937,35.43-6.206,50.012,4.518c14.578,10.721,21.938,28.493,19.21,46.38c-0.096,0.626-0.221,1.247-0.375,1.86  l-15.876,63.147c-0.328,3.997,1.984,6.354,3.448,7.431c1.55,1.14,4.748,2.756,8.771,0.793L337.26,287.453z"/>















</svg>