<?xml version="1.0" encoding="windows-1252"?>
<!-- Generator: Adobe Illustrator 19.0.0, SVG Export Plug-In . SVG Version: 6.00 Build 0)  -->
<svg xmlns="http://www.w3.org/2000/svg" xmlns:xlink="http://www.w3.org/1999/xlink" version="1.1" id="Layer_1" x="0px" y="0px" viewBox="0 0 512 512" style="enable-background:new 0 0 512 512;" xml:space="preserve" width="512" height="512">
<path d="M512,210c0,36.471-9.5,72.402-27.473,103.91c-5.472,9.594-17.688,12.936-27.281,7.463  c-9.595-5.473-12.937-17.688-7.463-27.282C464.318,268.61,472,239.532,472,210c0-93.738-76.262-170-170-170s-170,76.262-170,170  s76.262,170,170,170c29.173,0,57.941-7.507,83.196-21.71c9.628-5.417,21.821-1.998,27.236,7.628  c5.414,9.628,1.999,21.822-7.629,27.236C373.575,410.717,338.026,420,302,420c-50.477,0-96.848-17.906-133.105-47.694L34.094,506.19  C30.193,510.065,25.096,512,20,512c-5.142,0-10.281-1.97-14.19-5.906c-7.784-7.837-7.74-20.5,0.097-28.284l134.619-133.703  C110.24,307.704,92,260.944,92,210C92,94.206,186.206,0,302,0S512,94.206,512,210z M302,170c-11.046,0-20,8.954-20,20v108  c0,11.046,8.954,20,20,20s20-8.954,20-20V190C322,178.954,313.046,170,302,170z M302,101c-11.046,0-20,8.954-20,20s8.954,20,20,20  s20-8.954,20-20S313.046,101,302,101z"/>















</svg>